<svg xmlns="http://www.w3.org/2000/svg" viewBox="0 0 1920 1080" width="1920" height="1080">
  <defs>
    <linearGradient id="bg" x1="0" y1="0" x2="0" y2="1">
      <stop offset="0%" stop-color="#0a1419"></stop>
      <stop offset="50%" stop-color="#0d2530"></stop>
      <stop offset="100%" stop-color="#000"></stop>
    </linearGradient>
    <radialGradient id="spot" cx="0.65" cy="0.35" r="0.7">
      <stop offset="0%" stop-color="#1a4858" stop-opacity="0.9"></stop>
      <stop offset="50%" stop-color="#0a2530" stop-opacity="0.4"></stop>
      <stop offset="100%" stop-color="#000" stop-opacity="0"></stop>
    </radialGradient>
  </defs>
  <rect width="1920" height="1080" fill="url(#bg)"></rect>
  <rect width="1920" height="1080" fill="url(#spot)"></rect>
  
  <circle cx="1300" cy="380" r="180" fill="#0c1a22" stroke="#1a3140" stroke-width="2"></circle>
  <circle cx="1300" cy="380" r="140" fill="#0a1620" stroke="#1a3140" stroke-width="1.5"></circle>
  <g opacity="0.7">
    <circle cx="1240" cy="320" r="14" fill="#e6f4f8"></circle>
    <circle cx="1300" cy="310" r="14" fill="#e6f4f8"></circle>
    <circle cx="1360" cy="320" r="14" fill="#e6f4f8"></circle>
    <circle cx="1240" cy="380" r="14" fill="#e6f4f8"></circle>
    <circle cx="1300" cy="380" r="14" fill="#ffffff"></circle>
    <circle cx="1360" cy="380" r="14" fill="#e6f4f8"></circle>
    <circle cx="1240" cy="440" r="14" fill="#e6f4f8"></circle>
    <circle cx="1300" cy="450" r="14" fill="#e6f4f8"></circle>
    <circle cx="1360" cy="440" r="14" fill="#e6f4f8"></circle>
  </g>
  
  <rect x="600" y="800" width="1320" height="40" fill="#1a2a32"></rect>
  <rect x="600" y="838" width="1320" height="6" fill="#0a1419"></rect>
  
  <rect x="1290" y="180" width="20" height="200" fill="#1a2a32"></rect>
  
  <g opacity="0.6">
    <rect x="200" y="700" width="120" height="180" fill="#0a1620" stroke="#1a3140" stroke-width="1"></rect>
    <rect x="220" y="720" width="80" height="40" fill="#00b9d6" opacity="0.3"></rect>
    <rect x="220" y="780" width="80" height="6" fill="#2ad3a4" opacity="0.4"></rect>
    <rect x="220" y="800" width="60" height="6" fill="#1a3140"></rect>
    <rect x="220" y="820" width="80" height="6" fill="#1a3140"></rect>
  </g>
  
  <circle cx="380" cy="500" r="200" fill="#00b9d6" opacity="0.05"></circle>
</svg>