<svg xmlns="http://www.w3.org/2000/svg" viewBox="0 0 1920 1080" width="1920" height="1080">
  <defs>
    <radialGradient id="bg3" cx="0.5" cy="0.5" r="0.7">
      <stop offset="0%" stop-color="#0c1820"></stop>
      <stop offset="100%" stop-color="#000"></stop>
    </radialGradient>
  </defs>
  <rect width="1920" height="1080" fill="url(#bg3)"></rect>
  
  <rect x="160" y="780" width="1600" height="180" fill="#0a1014"></rect>
  <rect x="160" y="780" width="1600" height="4" fill="#1a2a32"></rect>
  
  <g transform="translate(280, 540)">
    <rect x="0" y="0" width="240" height="12" fill="#2a3a44"></rect>
    <polygon points="240,0 290,6 240,12" fill="#e6f0f4"></polygon>
    <rect x="20" y="2" width="180" height="2" fill="#3a4a54" opacity="0.6"></rect>
  </g>
  <g transform="translate(420, 460) rotate(-8)">
    <rect x="0" y="0" width="240" height="12" fill="#2a3a44"></rect>
    <polygon points="240,0 290,6 240,12" fill="#e6f0f4"></polygon>
  </g>
  
  <g transform="translate(720, 380)">
    <path d="M 0 0 L 200 80 L 400 0" stroke="#c8d4dc" stroke-width="6" fill="none"></path>
    <circle cx="200" cy="80" r="8" fill="#1a2a32"></circle>
    <line x1="0" y1="0" x2="-30" y2="-15" stroke="#3a4a54" stroke-width="8"></line>
    <line x1="400" y1="0" x2="430" y2="-15" stroke="#3a4a54" stroke-width="8"></line>
  </g>
  
  <g transform="translate(1200, 420) rotate(12)">
    <rect x="0" y="0" width="320" height="10" fill="#c8d4dc"></rect>
    <rect x="0" y="14" width="320" height="10" fill="#c8d4dc"></rect>
    <circle cx="0" cy="12" r="14" fill="#3a4a54"></circle>
    <circle cx="320" cy="12" r="14" fill="#3a4a54"></circle>
  </g>
  
  <g transform="translate(1480, 580)">
    <rect x="0" y="0" width="280" height="20" fill="#e6f0f4" opacity="0.85"></rect>
    <rect x="0" y="0" width="280" height="3" fill="#00b9d6" opacity="0.4"></rect>
    <rect x="280" y="6" width="40" height="8" fill="#3a4a54"></rect>
    <line x1="320" y1="10" x2="380" y2="10" stroke="#c8d4dc" stroke-width="2"></line>
    <rect x="-30" y="6" width="30" height="8" fill="#1a2a32"></rect>
  </g>
  
  <ellipse cx="960" cy="540" rx="700" ry="280" fill="#00b9d6" opacity="0.06"></ellipse>
  
  <radialGradient id="vig" cx="0.5" cy="0.5" r="0.6">
    <stop offset="60%" stop-color="#000" stop-opacity="0"></stop>
    <stop offset="100%" stop-color="#000" stop-opacity="0.7"></stop>
  </radialGradient>
  <rect width="1920" height="1080" fill="url(#vig)"></rect>
</svg>