<svg xmlns="http://www.w3.org/2000/svg" viewBox="0 0 1920 1080" width="1920" height="1080">
  <defs>
    <linearGradient id="bg6" x1="0" y1="0" x2="0" y2="1">
      <stop offset="0%" stop-color="#000"></stop>
      <stop offset="100%" stop-color="#0a1620"></stop>
    </linearGradient>
  </defs>
  <rect width="1920" height="1080" fill="url(#bg6)"></rect>
  
  <polygon points="0,720 1920,720 1920,800 0,800" fill="#06121c"></polygon>
  
  <rect x="400" y="540" width="1120" height="180" fill="#0a1620"></rect>
  <polygon points="1520,540 1620,540 1660,720 1520,720" fill="#0a1620"></polygon>
  <polygon points="400,540 360,580 360,720 400,720" fill="#0a1620"></polygon>
  
  <g opacity="0.85">
    <rect x="440" y="380" width="80" height="160" fill="#0a3a6b"></rect>
    <rect x="530" y="420" width="80" height="120" fill="#1a3140"></rect>
    <rect x="620" y="360" width="80" height="180" fill="#0a3a6b"></rect>
    <rect x="710" y="400" width="80" height="140" fill="#00b9d6" opacity="0.6"></rect>
    <rect x="800" y="380" width="80" height="160" fill="#1a3140"></rect>
    <rect x="890" y="420" width="80" height="120" fill="#0a3a6b"></rect>
    <rect x="980" y="360" width="80" height="180" fill="#1a3140"></rect>
    <rect x="1070" y="400" width="80" height="140" fill="#0a3a6b"></rect>
    <rect x="1160" y="380" width="80" height="160" fill="#2ad3a4" opacity="0.5"></rect>
    <rect x="1250" y="420" width="80" height="120" fill="#1a3140"></rect>
    <rect x="1340" y="380" width="80" height="160" fill="#0a3a6b"></rect>
    <rect x="1430" y="420" width="80" height="120" fill="#1a3140"></rect>
  </g>
  
  <g opacity="0.7">
    <line x1="700" y1="100" x2="700" y2="540" stroke="#1a2a32" stroke-width="6"></line>
    <line x1="700" y1="100" x2="900" y2="100" stroke="#1a2a32" stroke-width="6"></line>
    <line x1="900" y1="100" x2="900" y2="180" stroke="#1a2a32" stroke-width="3"></line>
    <line x1="1200" y1="80" x2="1200" y2="540" stroke="#1a2a32" stroke-width="6"></line>
    <line x1="1200" y1="80" x2="1400" y2="80" stroke="#1a2a32" stroke-width="6"></line>
    <line x1="1400" y1="80" x2="1400" y2="160" stroke="#1a2a32" stroke-width="3"></line>
  </g>
  
  <g opacity="0.3">
    <rect x="440" y="800" width="1080" height="180" fill="#0a1620"></rect>
    <line x1="0" y1="850" x2="1920" y2="850" stroke="#1a2a32" stroke-width="1"></line>
    <line x1="0" y1="900" x2="1920" y2="900" stroke="#1a2a32" stroke-width="1"></line>
    <line x1="0" y1="950" x2="1920" y2="950" stroke="#1a2a32" stroke-width="1"></line>
  </g>
  
  <ellipse cx="1600" cy="200" rx="600" ry="160" fill="#00b9d6" opacity="0.08"></ellipse>
  
  <radialGradient id="vig4" cx="0.5" cy="0.5" r="0.7">
    <stop offset="50%" stop-color="#000" stop-opacity="0"></stop>
    <stop offset="100%" stop-color="#000" stop-opacity="0.8"></stop>
  </radialGradient>
  <rect width="1920" height="1080" fill="url(#vig4)"></rect>
</svg>